<svg viewBox="0 0 42 37" focusable="false" class="chakra-icon css-150w32s" xmlns="http://www.w3.org/2000/svg"><path d="M40.8778 5.60227C39.901 4.37634 38.3322 3.61386 36.2126 3.33138L15.5813 0.59892C13.4617 0.316439 11.7408 0.639531 10.4475 1.56083C9.1504 2.48397 8.34167 3.96651 8.04473 5.96603L7.75738 7.87902H6.67521C2.37157 7.87902 0 10.1185 0 14.1878V30.1913C0 34.2605 2.37157 36.5 6.67521 36.5H27.5154C31.2447 36.5 33.5169 34.8123 34.06 31.718C37.1055 31.4853 39.0452 29.6169 39.5512 26.2954L41.8934 10.4546C42.1962 8.45879 41.8526 6.82636 40.8778 5.60227ZM6.67521 10.6484H27.5154C30.1762 10.6484 31.2625 11.6731 31.2625 14.1878V23.567L24.5754 17.247C23.3212 16.0635 21.2856 16.0654 20.0373 17.247L11.8853 24.9517L10.682 23.8122C9.42779 22.6269 7.39221 22.6306 6.1439 23.8122L2.9303 26.8494V14.1878C2.9303 11.6731 4.01645 10.6484 6.67521 10.6484ZM27.5154 33.7306H6.67521C4.22157 33.7306 3.11978 32.8424 2.96154 30.734L8.21452 25.7694C8.32001 25.6715 8.49979 25.6697 8.60919 25.7694L10.2425 27.3128C11.1489 28.1713 12.6277 28.1676 13.5302 27.3128L22.1101 19.2042C22.2195 19.1045 22.3993 19.1063 22.5047 19.2042L31.2625 27.4809V30.1913C31.2625 32.7059 30.1762 33.7306 27.5154 33.7306ZM38.9925 10.0688L36.6502 25.9078C36.367 27.7651 35.6247 28.7011 34.1928 28.9319V14.1878C34.1928 10.1185 31.821 7.87902 27.5154 7.87902H10.7151L10.9438 6.35593C11.1313 5.10784 11.5552 4.23793 12.2096 3.77267C12.8582 3.30925 13.8564 3.16176 15.1711 3.34085L35.8044 6.07331C37.125 6.25055 38.043 6.65114 38.5353 7.2678C39.0276 7.88261 39.18 8.82438 38.9925 10.0688ZM8.33566 17.5756C8.33566 16.5565 9.20112 15.7293 10.2775 15.7293H10.2933C11.3696 15.7293 12.2427 16.5565 12.2427 17.5756C12.2427 18.5948 11.3696 19.4219 10.2933 19.4219C9.21881 19.4219 8.33566 18.5948 8.33566 17.5756Z" fill="currentcolor"></path></svg>